<svg width="23" height="23" viewBox="0 0 23 23" fill="none" xmlns="http://www.w3.org/2000/svg">
<rect width="23" height="23" rx="4" fill="#4CD964"/>
<path d="M16.6667 15.3092C16.0756 15.3092 15.5467 15.5502 15.1422 15.9277L9.59667 12.5944C9.63556 12.4096 9.66667 12.2249 9.66667 12.0321C9.66667 11.8394 9.63556 11.6546 9.59667 11.4699L15.08 8.16867C15.5 8.57028 16.0522 8.81928 16.6667 8.81928C17.9578 8.81928 19 7.74297 19 6.40964C19 5.07631 17.9578 4 16.6667 4C15.3756 4 14.3333 5.07631 14.3333 6.40964C14.3333 6.60241 14.3644 6.78715 14.4033 6.97189L8.92 10.2731C8.5 9.87149 7.94778 9.62249 7.33333 9.62249C6.04222 9.62249 5 10.6988 5 12.0321C5 13.3655 6.04222 14.4418 7.33333 14.4418C7.94778 14.4418 8.5 14.1928 8.92 13.7912L14.4578 17.1325C14.4189 17.3012 14.3956 17.4779 14.3956 17.6546C14.3956 18.9478 15.4144 20 16.6667 20C17.9189 20 18.9378 18.9478 18.9378 17.6546C18.9378 16.3614 17.9189 15.3092 16.6667 15.3092Z" fill="white"/>
</svg>
