<svg width="24" height="28" viewBox="0 0 24 28" fill="none" xmlns="http://www.w3.org/2000/svg">
<path d="M21.8182 0H2.18182C1.60316 0 1.04821 0.226922 0.63904 0.630847C0.229869 1.03477 0 1.58261 0 2.15385V25.8462C0 26.4174 0.229869 26.9652 0.63904 27.3692C1.04821 27.7731 1.60316 28 2.18182 28H21.8182C22.3968 28 22.9518 27.7731 23.361 27.3692C23.7701 26.9652 24 26.4174 24 25.8462V2.15385C24 1.58261 23.7701 1.03477 23.361 0.630847C22.9518 0.226922 22.3968 0 21.8182 0ZM6.54545 23.6923C6.22181 23.6923 5.90544 23.5976 5.63634 23.4201C5.36724 23.2426 5.1575 22.9903 5.03365 22.6951C4.9098 22.3999 4.87739 22.0751 4.94053 21.7618C5.00367 21.4484 5.15952 21.1606 5.38837 20.9347C5.61722 20.7088 5.90879 20.5549 6.22622 20.4926C6.54364 20.4302 6.87266 20.4622 7.17166 20.5845C7.47067 20.7068 7.72624 20.9138 7.90604 21.1795C8.08585 21.4451 8.18182 21.7574 8.18182 22.0769C8.18182 22.5054 8.00942 22.9162 7.70254 23.2192C7.39566 23.5221 6.97945 23.6923 6.54545 23.6923ZM6.54545 18.3077C6.22181 18.3077 5.90544 18.213 5.63634 18.0355C5.36724 17.858 5.1575 17.6057 5.03365 17.3105C4.9098 17.0153 4.87739 16.6905 4.94053 16.3772C5.00367 16.0638 5.15952 15.776 5.38837 15.5501C5.61722 15.3241 5.90879 15.1703 6.22622 15.108C6.54364 15.0456 6.87266 15.0776 7.17166 15.1999C7.47067 15.3222 7.72624 15.5292 7.90604 15.7948C8.08585 16.0605 8.18182 16.3728 8.18182 16.6923C8.18182 17.1207 8.00942 17.5316 7.70254 17.8346C7.39566 18.1375 6.97945 18.3077 6.54545 18.3077ZM12 23.6923C11.6764 23.6923 11.36 23.5976 11.0909 23.4201C10.8218 23.2426 10.6121 22.9903 10.4882 22.6951C10.3643 22.3999 10.3319 22.0751 10.3951 21.7618C10.4582 21.4484 10.6141 21.1606 10.8429 20.9347C11.0718 20.7088 11.3633 20.5549 11.6808 20.4926C11.9982 20.4302 12.3272 20.4622 12.6262 20.5845C12.9252 20.7068 13.1808 20.9138 13.3606 21.1795C13.5404 21.4451 13.6364 21.7574 13.6364 22.0769C13.6364 22.5054 13.464 22.9162 13.1571 23.2192C12.8502 23.5221 12.434 23.6923 12 23.6923ZM12 18.3077C11.6764 18.3077 11.36 18.213 11.0909 18.0355C10.8218 17.858 10.6121 17.6057 10.4882 17.3105C10.3643 17.0153 10.3319 16.6905 10.3951 16.3772C10.4582 16.0638 10.6141 15.776 10.8429 15.5501C11.0718 15.3241 11.3633 15.1703 11.6808 15.108C11.9982 15.0456 12.3272 15.0776 12.6262 15.1999C12.9252 15.3222 13.1808 15.5292 13.3606 15.7948C13.5404 16.0605 13.6364 16.3728 13.6364 16.6923C13.6364 17.1207 13.464 17.5316 13.1571 17.8346C12.8502 18.1375 12.434 18.3077 12 18.3077ZM17.4545 23.6923C17.1309 23.6923 16.8145 23.5976 16.5454 23.4201C16.2763 23.2426 16.0666 22.9903 15.9427 22.6951C15.8189 22.3999 15.7865 22.0751 15.8496 21.7618C15.9128 21.4484 16.0686 21.1606 16.2975 20.9347C16.5263 20.7088 16.8179 20.5549 17.1353 20.4926C17.4527 20.4302 17.7817 20.4622 18.0808 20.5845C18.3798 20.7068 18.6353 20.9138 18.8151 21.1795C18.9949 21.4451 19.0909 21.7574 19.0909 22.0769C19.0909 22.5054 18.9185 22.9162 18.6116 23.2192C18.3048 23.5221 17.8885 23.6923 17.4545 23.6923ZM17.4545 18.3077C17.1309 18.3077 16.8145 18.213 16.5454 18.0355C16.2763 17.858 16.0666 17.6057 15.9427 17.3105C15.8189 17.0153 15.7865 16.6905 15.8496 16.3772C15.9128 16.0638 16.0686 15.776 16.2975 15.5501C16.5263 15.3241 16.8179 15.1703 17.1353 15.108C17.4527 15.0456 17.7817 15.0776 18.0808 15.1999C18.3798 15.3222 18.6353 15.5292 18.8151 15.7948C18.9949 16.0605 19.0909 16.3728 19.0909 16.6923C19.0909 17.1207 18.9185 17.5316 18.6116 17.8346C18.3048 18.1375 17.8885 18.3077 17.4545 18.3077ZM19.6364 10.7692C19.6364 11.0548 19.5214 11.3288 19.3168 11.5307C19.1123 11.7327 18.8348 11.8462 18.5455 11.8462H5.45455C5.16522 11.8462 4.88774 11.7327 4.68316 11.5307C4.47857 11.3288 4.36364 11.0548 4.36364 10.7692V5.38462C4.36364 5.099 4.47857 4.82508 4.68316 4.62312C4.88774 4.42115 5.16522 4.30769 5.45455 4.30769H18.5455C18.8348 4.30769 19.1123 4.42115 19.3168 4.62312C19.5214 4.82508 19.6364 5.099 19.6364 5.38462V10.7692Z" fill="black"/>
</svg>
