<svg width="49" height="49" viewBox="0 0 49 49" fill="none" xmlns="http://www.w3.org/2000/svg">
<g id="uil:camera">
<path id="Vector" d="M38.7916 13.2708H36.1783L35.525 11.2292C35.1014 10.0312 34.3158 8.99456 33.2769 8.26295C32.238 7.53133 30.9973 7.14093 29.7266 7.14583H19.2733C17.9902 7.14823 16.7403 7.55351 15.6999 8.30448C14.6596 9.05546 13.8813 10.1142 13.475 11.3312L12.8216 13.3729H10.2083C8.58386 13.3729 7.02594 14.0182 5.87728 15.1669C4.72862 16.3155 4.08331 17.8735 4.08331 19.4979V35.8312C4.08331 37.4557 4.72862 39.0136 5.87728 40.1623C7.02594 41.3109 8.58386 41.9562 10.2083 41.9562H38.7916C40.4161 41.9562 41.974 41.3109 43.1227 40.1623C44.2713 39.0136 44.9166 37.4557 44.9166 35.8312V19.4979C44.9302 18.685 44.7818 17.8776 44.48 17.1226C44.1783 16.3677 43.7293 15.6804 43.1592 15.1007C42.5891 14.5211 41.9093 14.0608 41.1594 13.7466C40.4096 13.4325 39.6047 13.2707 38.7916 13.2708ZM40.8333 35.7292C40.8333 36.2706 40.6182 36.79 40.2353 37.1728C39.8524 37.5557 39.3331 37.7708 38.7916 37.7708H10.2083C9.66683 37.7708 9.14752 37.5557 8.76464 37.1728C8.38175 36.79 8.16665 36.2706 8.16665 35.7292V19.3958C8.16665 18.8543 8.38175 18.335 8.76464 17.9522C9.14752 17.5693 9.66683 17.3542 10.2083 17.3542H14.2916C14.7369 17.3774 15.1775 17.2543 15.5461 17.0036C15.9148 16.7529 16.1913 16.3884 16.3333 15.9658L17.4358 12.6175C17.5728 12.212 17.8337 11.8598 18.1818 11.6106C18.5298 11.3615 18.9474 11.2281 19.3754 11.2292H29.8287C30.2568 11.2281 30.6743 11.3615 31.0223 11.6106C31.3704 11.8598 31.6313 12.212 31.7683 12.6175L32.8708 15.9658C33.0018 16.3553 33.2473 16.6961 33.5751 16.9438C33.903 17.1915 34.2979 17.3345 34.7083 17.3542H38.7916C39.3331 17.3542 39.8524 17.5693 40.2353 17.9522C40.6182 18.335 40.8333 18.8543 40.8333 19.3958V35.7292ZM24.5 17.3542C22.8848 17.3542 21.3058 17.8331 19.9628 18.7305C18.6198 19.6279 17.5731 20.9033 16.955 22.3956C16.3368 23.8878 16.1751 25.5299 16.4902 27.1141C16.8053 28.6982 17.5831 30.1534 18.7253 31.2955C19.8674 32.4377 21.3226 33.2155 22.9067 33.5306C24.4909 33.8457 26.133 33.684 27.6252 33.0658C29.1175 32.4477 30.393 31.401 31.2903 30.058C32.1877 28.715 32.6666 27.136 32.6666 25.5208C32.6666 23.3549 31.8062 21.2777 30.2747 19.7461C28.7431 18.2146 26.6659 17.3542 24.5 17.3542ZM24.5 29.6042C23.6924 29.6042 22.9029 29.3647 22.2314 28.916C21.5599 28.4673 21.0365 27.8296 20.7275 27.0835C20.4184 26.3373 20.3376 25.5163 20.4951 24.7242C20.6527 23.9321 21.0416 23.2045 21.6126 22.6335C22.1837 22.0624 22.9113 21.6735 23.7034 21.516C24.4955 21.3584 25.3165 21.4393 26.0626 21.7483C26.8087 22.0574 27.4465 22.5808 27.8951 23.2523C28.3438 23.9238 28.5833 24.7132 28.5833 25.5208C28.5833 26.6038 28.1531 27.6424 27.3873 28.4082C26.6216 29.174 25.5829 29.6042 24.5 29.6042Z" fill="#B0B0B0"/>
</g>
</svg>
