<svg width="23" height="23" viewBox="0 0 23 23" fill="none" xmlns="http://www.w3.org/2000/svg">
<rect width="23" height="23" rx="4" fill="#F84A13"/>
<path d="M10.5893 11.5C10.5893 11.7415 10.6852 11.9732 10.856 12.144C11.0268 12.3148 11.2585 12.4107 11.5 12.4107C11.7415 12.4107 11.9732 12.3148 12.144 12.144C12.3148 11.9732 12.4107 11.7415 12.4107 11.5C12.4107 11.2585 12.3148 11.0268 12.144 10.856C11.9732 10.6852 11.7415 10.5893 11.5 10.5893C11.2585 10.5893 11.0268 10.6852 10.856 10.856C10.6852 11.0268 10.5893 11.2585 10.5893 11.5ZM14.3839 11.5C14.3839 11.7415 14.4798 11.9732 14.6506 12.144C14.8214 12.3148 15.0531 12.4107 15.2946 12.4107C15.5361 12.4107 15.7678 12.3148 15.9386 12.144C16.1094 11.9732 16.2053 11.7415 16.2053 11.5C16.2053 11.2585 16.1094 11.0268 15.9386 10.856C15.7678 10.6852 15.5361 10.5893 15.2946 10.5893C15.0531 10.5893 14.8214 10.6852 14.6506 10.856C14.4798 11.0268 14.3839 11.2585 14.3839 11.5ZM6.7947 11.5C6.7947 11.7415 6.89065 11.9732 7.06144 12.144C7.23223 12.3148 7.46387 12.4107 7.70541 12.4107C7.94694 12.4107 8.17858 12.3148 8.34937 12.144C8.52016 11.9732 8.61611 11.7415 8.61611 11.5C8.61611 11.2585 8.52016 11.0268 8.34937 10.856C8.17858 10.6852 7.94694 10.5893 7.70541 10.5893C7.46387 10.5893 7.23223 10.6852 7.06144 10.856C6.89065 11.0268 6.7947 11.2585 6.7947 11.5ZM19.3396 8.20625C18.9108 7.18739 18.2961 6.27288 17.5125 5.48739C16.7344 4.70644 15.8107 4.08569 14.7937 3.66027C13.7502 3.22199 12.6422 3 11.5 3H11.4621C10.3123 3.00569 9.19858 3.23337 8.15127 3.68114C7.14297 4.11092 6.22791 4.73278 5.45711 5.51205C4.68111 6.29565 4.07208 7.20636 3.65088 8.22143C3.2145 9.27254 2.99442 10.3901 3.00011 11.5398C3.00655 12.8575 3.31827 14.1557 3.91081 15.3326V18.2165C3.91081 18.448 4.00276 18.67 4.16644 18.8337C4.33011 18.9973 4.5521 19.0893 4.78357 19.0893H7.66936C8.84624 19.6818 10.1444 19.9936 11.4621 20H11.5019C12.6384 20 13.7407 19.7799 14.7785 19.3492C15.7904 18.9289 16.7107 18.3153 17.4879 17.543C18.2715 16.767 18.8881 15.86 19.3188 14.8488C19.7665 13.8015 19.9942 12.6877 19.9999 11.5379C20.0056 10.3825 19.7817 9.26116 19.3396 8.20625ZM16.4728 16.5165C15.1428 17.8333 13.3783 18.558 11.5 18.558H11.4677C10.3237 18.5523 9.1872 18.2677 8.18353 17.7327L8.02415 17.6473H5.35276V14.9759L5.26738 14.8165C4.73234 13.8128 4.44775 12.6763 4.44205 11.5323C4.43446 9.64063 5.15734 7.86473 6.48355 6.52712C7.80786 5.18951 9.57804 4.44955 11.4696 4.44196H11.5019C12.4505 4.44196 13.3707 4.626 14.2378 4.99029C15.084 5.34509 15.8429 5.85547 16.4956 6.50815C17.1464 7.15893 17.6586 7.91975 18.0134 8.76596C18.3815 9.64252 18.5655 10.5722 18.5617 11.5323C18.5504 13.422 17.8085 15.1922 16.4728 16.5165Z" fill="white"/>
</svg>
