<svg width="12" height="16" viewBox="0 0 12 16" fill="none" xmlns="http://www.w3.org/2000/svg">
<path d="M8.55162 15.9193C10.6465 14.9341 12 12.8042 12 10.4861C12 8.51082 11.2427 7.55745 10.0917 6.11783C9.84615 5.80376 9.58788 5.48332 9.30889 5.11504C8.19291 3.64673 9.00598 0.352985 9.01554 0.317911C9.03627 0.231821 9.00917 0.136166 8.94699 0.0739894C8.88163 0.0118132 8.78597 -0.0152892 8.70148 0.00862467C8.6106 0.0325386 6.5014 0.617632 4.35871 2.19595C2.37067 3.66108 0 6.28682 0 10.4861C0 12.8042 1.35672 14.9341 3.44998 15.9193C3.48187 15.9369 3.52172 15.9433 3.5568 15.9433C3.63173 15.9433 3.70506 15.9114 3.75608 15.8508C3.83101 15.7615 3.8326 15.6308 3.76564 15.5367C3.4181 15.0648 3.23794 14.5005 3.23794 13.9138C3.23794 10.3984 5.53208 8.62879 6.69111 7.96239C6.18095 9.15171 5.44759 11.6117 7.14867 13.19C7.22041 13.2585 7.32722 13.2793 7.4181 13.241C8.59944 12.7452 8.55799 11.1079 8.36987 9.99188C8.89279 10.7093 9.52093 11.7663 9.49063 12.6766C9.44918 14.1162 8.84336 14.8193 8.44321 15.2848C8.36349 15.3805 8.29175 15.4602 8.23595 15.5367C8.1674 15.6324 8.17059 15.7615 8.24552 15.8508C8.31885 15.9401 8.4448 15.9688 8.55162 15.9193Z" fill="black"/>
</svg>
