<svg width="33" height="32" viewBox="0 0 33 32" fill="none" xmlns="http://www.w3.org/2000/svg">
<path d="M3 9.08333V6.25H5.83333V4.83333C5.83333 4.08189 6.13184 3.36122 6.6632 2.82986C7.19455 2.29851 7.91522 2 8.66667 2H17.1667V11.9167L20.7083 9.79167L24.25 11.9167V2H25.6667C27.1542 2 28.5 3.34583 28.5 4.83333V27.5C28.5 28.9875 27.1542 30.3333 25.6667 30.3333H8.66667C7.17917 30.3333 5.83333 28.9875 5.83333 27.5V26.0833H3V23.25H5.83333V17.5833H3V14.75H5.83333V9.08333H3ZM8.66667 14.75H5.83333V17.5833H8.66667V14.75ZM8.66667 9.08333V6.25H5.83333V9.08333H8.66667ZM8.66667 26.0833V23.25H5.83333V26.0833H8.66667Z" fill="black"/>
</svg>
