<svg width="24" height="24" viewBox="0 0 24 24" fill="none" xmlns="http://www.w3.org/2000/svg">
<rect width="24" height="24" rx="4" fill="#8247FF"/>
<path d="M18.8391 11.1369C18.7587 10.0601 17.954 9.23173 16.908 9.1489C15.4598 8.98323 13.5287 8.9004 12 8.9004C11.1954 8.9004 10.3103 8.9004 9.42528 8.98323V6.99524C9.42528 6.00125 10.2299 5.17292 11.1954 5.17292H13.2069C14.0115 5.17292 14.6552 5.83559 14.6552 6.66391C14.6552 6.99524 14.8965 7.32658 15.2989 7.32658C15.7011 7.32658 15.9426 7.07807 15.9426 6.66391C15.9426 5.17292 14.7356 4.01327 13.3678 4.01327H11.1954C9.50574 3.84759 8.13793 5.25575 8.13793 6.99524V9.06607C7.73563 9.06607 7.41379 9.1489 7.09196 9.1489C6.04598 9.23173 5.24138 10.0601 5.16092 11.1369C5.08046 12.048 5 13.4562 5 14.4502C5 15.4442 5.08046 16.7695 5.16092 17.7634C5.24138 18.8403 6.04598 19.6686 7.09196 19.7514C8.54023 19.9171 10.4713 20 12 20C13.5287 20 15.4598 19.8343 16.908 19.7514C17.954 19.6686 18.7587 18.8403 18.8391 17.7634C18.9196 16.8523 19 15.527 19 14.4502C19 13.3734 18.9196 12.1309 18.8391 11.1369ZM12.6437 15.2785C12.6437 15.6098 12.4023 15.9411 12 15.9411C11.5977 15.9411 11.3563 15.6926 11.3563 15.2785V13.6218C11.3563 13.2905 11.5977 12.9592 12 12.9592C12.4023 12.9592 12.6437 13.2077 12.6437 13.6218V15.2785Z" fill="white"/>
</svg>
