<svg width="23" height="23" viewBox="0 0 23 23" fill="none" xmlns="http://www.w3.org/2000/svg">
<rect width="23" height="23" rx="4" fill="#137CF8"/>
<path d="M19.5753 10.8326L16.1548 13.5663L17.1794 17.6362C17.2336 17.849 17.2182 18.0717 17.1349 18.2764C17.0517 18.4812 16.9044 18.6589 16.7115 18.7874C16.5185 18.9159 16.2885 18.9895 16.0502 18.999C15.8118 19.0084 15.5757 18.9533 15.3714 18.8405L11.4951 16.6875L7.62713 18.8405C7.42279 18.9533 7.18668 19.0084 6.94833 18.999C6.70997 18.9895 6.47994 18.9159 6.287 18.7874C6.09406 18.6589 5.94677 18.4812 5.86354 18.2764C5.78031 18.0717 5.76484 17.849 5.81906 17.6362L6.84217 13.5704L3.42094 10.8326C3.23999 10.6897 3.10914 10.501 3.04481 10.2903C2.98047 10.0796 2.98552 9.8561 3.0593 9.64797C3.13309 9.43984 3.27234 9.25629 3.45959 9.12035C3.64683 8.9844 3.87374 8.9021 4.11186 8.88378L8.62142 8.5261L10.3817 4.68119C10.4736 4.47944 10.6287 4.30711 10.8273 4.1859C11.026 4.06468 11.2594 4 11.4981 4C11.7368 4 11.9702 4.06468 12.1689 4.1859C12.3675 4.30711 12.5226 4.47944 12.6145 4.68119L14.3801 8.5261L18.8881 8.88378C19.1263 8.9021 19.3532 8.9844 19.5404 9.12035C19.7277 9.25629 19.8669 9.43984 19.9407 9.64797C20.0145 9.8561 20.0195 10.0796 19.9552 10.2903C19.8909 10.501 19.76 10.6897 19.5791 10.8326H19.5753Z" fill="white"/>
</svg>
