<svg width="23" height="23" viewBox="0 0 23 23" fill="none" xmlns="http://www.w3.org/2000/svg">
<circle cx="11.5" cy="11.5" r="11.5" fill="#85EC1E"/>
<g clip-path="url(#clip0_16_1607)">
<path fill-rule="evenodd" clip-rule="evenodd" d="M17.4662 7.19436C17.642 7.37016 17.7407 7.60858 17.7407 7.85717C17.7407 8.10576 17.642 8.34417 17.4662 8.51998L10.4394 15.5469C10.3465 15.6397 10.2363 15.7134 10.1149 15.7637C9.99357 15.814 9.86351 15.8398 9.73217 15.8398C9.60083 15.8398 9.47078 15.814 9.34944 15.7637C9.2281 15.7134 9.11785 15.6397 9.02499 15.5469L5.53374 12.0562C5.44419 11.9697 5.37277 11.8663 5.32364 11.7519C5.27451 11.6375 5.24865 11.5145 5.24756 11.39C5.24648 11.2656 5.2702 11.1421 5.31734 11.0269C5.36448 10.9117 5.43409 10.807 5.52212 10.719C5.61014 10.631 5.71481 10.5613 5.83003 10.5142C5.94524 10.4671 6.06869 10.4434 6.19317 10.4444C6.31766 10.4455 6.44067 10.4714 6.55505 10.5205C6.66943 10.5696 6.77288 10.6411 6.85936 10.7306L9.73186 13.6031L16.14 7.19436C16.227 7.10724 16.3304 7.03813 16.4442 6.99098C16.558 6.94382 16.6799 6.91956 16.8031 6.91956C16.9263 6.91956 17.0482 6.94382 17.162 6.99098C17.2758 7.03813 17.3792 7.10724 17.4662 7.19436Z" fill="white"/>
</g>
<defs>
<clipPath id="clip0_16_1607">
<rect width="15" height="15" fill="white" transform="translate(4 4)"/>
</clipPath>
</defs>
</svg>
