<svg width="24" height="24" viewBox="0 0 24 24" fill="none" xmlns="http://www.w3.org/2000/svg">
<rect width="24" height="24" rx="4" fill="#F9AB43"/>
<path d="M19.7511 10.9108L12.9511 4.24399C12.8322 4.12748 12.6807 4.04814 12.5159 4.016C12.351 3.98386 12.1801 4.00037 12.0248 4.06343C11.8695 4.12649 11.7368 4.23327 11.6434 4.37028C11.55 4.50729 11.5001 4.66838 11.5001 4.83318V7.78741C9.17811 7.99808 7.01989 9.05066 5.44776 10.7392C3.87564 12.4277 3.00278 14.6306 3 16.9168V18.1668C3.00013 18.3398 3.05517 18.5085 3.15748 18.6494C3.2598 18.7903 3.40431 18.8966 3.57097 18.9534C3.73764 19.0101 3.9182 19.0147 4.08761 18.9663C4.25702 18.918 4.40689 18.8191 4.51642 18.6835C5.34917 17.7126 6.37093 16.9142 7.522 16.3348C8.67307 15.7555 9.93037 15.4068 11.2204 15.3093C11.2629 15.3043 11.3692 15.2959 11.5001 15.2876V18.1668C11.5001 18.3316 11.55 18.4927 11.6434 18.6297C11.7368 18.7667 11.8695 18.8735 12.0248 18.9366C12.1801 18.9996 12.351 19.0161 12.5159 18.984C12.6807 18.9519 12.8322 18.8725 12.9511 18.756L19.7511 12.0892C19.9105 11.9329 20 11.721 20 11.5C20 11.279 19.9105 11.0671 19.7511 10.9108ZM13.2001 16.1551V14.4167C13.2001 14.1957 13.1106 13.9838 12.9511 13.8275C12.7917 13.6712 12.5755 13.5834 12.3501 13.5834C12.1333 13.5834 11.2485 13.6251 11.0224 13.6542C8.73149 13.8612 6.55084 14.7145 4.74422 16.1109C4.94928 14.2729 5.83864 12.5736 7.24202 11.3385C8.64539 10.1033 10.4642 9.41899 12.3501 9.41662C12.5755 9.41662 12.7917 9.32882 12.9511 9.17253C13.1106 9.01625 13.2001 8.80428 13.2001 8.58326V6.84489L17.9483 11.5L13.2001 16.1551Z" fill="white"/>
</svg>
