<svg width="23" height="23" viewBox="0 0 23 23" fill="none" xmlns="http://www.w3.org/2000/svg">
<rect width="23" height="23" rx="4" fill="#25BAFA"/>
<path d="M13.8307 10.5918C15.6358 10.5918 17.1127 9.12247 17.1127 7.32656C17.1127 5.53065 15.6358 4.06128 13.8307 4.06128C13.7487 4.06128 13.6667 4.06128 13.5846 4.06128C14.0769 4.8776 14.405 5.85719 14.405 6.83678C14.405 8.22452 13.8307 9.53062 12.9282 10.5102C13.1743 10.5918 13.5025 10.5918 13.8307 10.5918Z" fill="white"/>
<path d="M15.2259 12.3059H14.4054C15.6361 13.3671 16.4567 14.9999 16.4567 16.7957C16.4567 17.204 16.3746 17.5304 16.2925 17.857C17.3592 17.6937 18.0156 17.4488 18.4259 17.204C18.8361 16.959 19.0002 16.5508 19.0002 16.0611C19.0002 14.0203 17.2771 12.3059 15.2259 12.3059Z" fill="white"/>
<path d="M8.90793 10.5917C9.89257 10.5917 10.713 10.2653 11.4515 9.61228C12.272 8.95915 12.6822 7.89793 12.6822 6.83671C12.6822 6.02039 12.4361 5.20407 11.9438 4.63265C11.2874 3.65306 10.2207 3 8.90793 3C6.85666 3 5.13359 4.71428 5.13359 6.75508C5.13359 8.87752 6.85666 10.5917 8.90793 10.5917Z" fill="white"/>
<path d="M11.123 12.5512C10.8769 12.5512 10.7128 12.4695 10.4666 12.4695H7.3487C4.96922 12.4695 3 14.4288 3 16.796C3 17.3675 3.24615 17.7756 3.6564 18.1022C4.31282 18.5103 5.87178 19 8.90765 19C11.9435 19 13.4204 18.5103 14.1589 18.1022C14.1589 18.1022 14.241 18.0206 14.323 18.0206C14.6512 17.7756 14.8974 17.3675 14.8974 16.796C14.8153 14.6736 13.2563 12.8777 11.123 12.5512Z" fill="white"/>
</svg>
